<svg width="21" height="20" viewBox="0 0 21 20" fill="none" xmlns="http://www.w3.org/2000/svg">
<path d="M10.4142 2.09016e-07C8.51746 4.66868e-07 6.66333 0.562512 5.08632 1.61639C3.50931 2.67026 2.28026 4.16815 1.55464 5.9206C0.829019 7.67306 0.639417 9.60134 1.00982 11.4616C1.38021 13.3218 2.29398 15.0304 3.63552 16.3712C4.97707 17.7121 6.68613 18.6249 8.54654 18.9944C10.407 19.3638 12.3351 19.1732 14.0872 18.4466C15.8393 17.7201 17.3365 16.4903 18.3896 14.9127C19.4426 13.3352 20.0042 11.4807 20.0032 9.584C20.0024 7.04154 18.9917 4.60352 17.1935 2.8062C15.3952 1.00888 12.9567 -0.000530312 10.4142 2.09016e-07ZM11.0972 14.92C10.8869 15.1144 10.6106 15.2217 10.3242 15.22C10.0328 15.2243 9.75027 15.1194 9.5322 14.926C9.41788 14.823 9.32809 14.6957 9.26943 14.5535C9.21077 14.4112 9.18472 14.2576 9.1932 14.104C9.19008 13.9572 9.21754 13.8113 9.27383 13.6756C9.33013 13.54 9.41403 13.4175 9.5202 13.316C9.62523 13.2117 9.75022 13.1298 9.88768 13.0749C10.0251 13.0201 10.1722 12.9936 10.3202 12.997C10.466 12.9946 10.6109 13.0214 10.7462 13.0759C10.8815 13.1304 11.0045 13.2114 11.108 13.3143C11.2114 13.4171 11.2933 13.5396 11.3486 13.6745C11.4039 13.8095 11.4317 13.9541 11.4302 14.1C11.4382 14.2529 11.4124 14.4057 11.3545 14.5475C11.2965 14.6892 11.208 14.8165 11.0952 14.92H11.0972ZM13.8742 8.035C13.7136 8.3383 13.508 8.61545 13.2642 8.857C13.0309 9.08567 12.6075 9.47333 11.9942 10.02C11.8519 10.1475 11.7167 10.2827 11.5892 10.425C11.5011 10.5223 11.4249 10.6297 11.3622 10.745C11.3142 10.8375 11.2756 10.9347 11.2472 11.035C11.2199 11.1317 11.1789 11.3013 11.1242 11.544C11.1173 11.653 11.089 11.7595 11.0408 11.8574C10.9925 11.9554 10.9254 12.0428 10.8432 12.1146C10.761 12.1865 10.6654 12.2414 10.5619 12.2761C10.4584 12.3108 10.3491 12.3247 10.2402 12.317C10.1203 12.32 10.0011 12.2992 9.88934 12.2558C9.77759 12.2123 9.67557 12.1471 9.5892 12.064C9.49577 11.9638 9.42408 11.8454 9.37865 11.7161C9.33322 11.5869 9.31502 11.4496 9.3252 11.313C9.31553 10.944 9.37979 10.5768 9.5142 10.233C9.63718 9.93843 9.81081 9.66767 10.0272 9.433C10.3008 9.14458 10.5888 8.87023 10.8902 8.611C11.2075 8.33367 11.4369 8.12433 11.5782 7.983C11.7186 7.84308 11.8388 7.68421 11.9352 7.511C12.0318 7.33848 12.0818 7.14374 12.0802 6.946C12.0828 6.75734 12.0446 6.57034 11.9683 6.39777C11.892 6.22519 11.7794 6.0711 11.6382 5.946C11.3269 5.66475 10.9185 5.51557 10.4992 5.53C10.2815 5.51209 10.0624 5.53955 9.85588 5.61064C9.64933 5.68173 9.45977 5.7949 9.2992 5.943C8.99782 6.29725 8.77492 6.71135 8.6452 7.158C8.4732 7.71933 8.1522 8 7.6822 8C7.55152 8.00212 7.42183 7.97708 7.30134 7.92648C7.18084 7.87587 7.07217 7.80079 6.9822 7.706C6.89462 7.62435 6.82421 7.52603 6.7751 7.41683C6.72599 7.30762 6.69916 7.18971 6.6962 7.07C6.70836 6.55968 6.86548 6.06336 7.1492 5.639C7.47892 5.13088 7.93521 4.71733 8.4732 4.439C9.09852 4.11066 9.7971 3.94685 10.5032 3.963C11.1586 3.95078 11.8083 4.08756 12.4032 4.363C12.9197 4.59941 13.3609 4.97383 13.6782 5.445C13.9731 5.88471 14.1298 6.40255 14.1282 6.932C14.1365 7.3153 14.0485 7.69456 13.8722 8.035H13.8742Z" fill="#E41B23"/>
</svg>
