<svg width="25" height="25" viewBox="0 0 25 25" fill="none" xmlns="http://www.w3.org/2000/svg">
<path d="M20.536 0H4.464C3.28056 0.00158745 2.14605 0.47241 1.30923 1.30923C0.47241 2.14605 0.00158745 3.28056 0 4.464L0 20.536C0.00158745 21.7194 0.47241 22.854 1.30923 23.6908C2.14605 24.5276 3.28056 24.9984 4.464 25H20.536C21.7194 24.9984 22.854 24.5276 23.6908 23.6908C24.5276 22.854 24.9984 21.7194 25 20.536V4.464C24.9984 3.28056 24.5276 2.14605 23.6908 1.30923C22.854 0.47241 21.7194 0.00158745 20.536 0V0ZM16.964 13.393H13.393V16.964C13.393 17.2008 13.2989 17.428 13.1314 17.5954C12.964 17.7629 12.7368 17.857 12.5 17.857C12.2632 17.857 12.036 17.7629 11.8686 17.5954C11.7011 17.428 11.607 17.2008 11.607 16.964V13.393H8.036C7.79916 13.393 7.57202 13.2989 7.40455 13.1314C7.23708 12.964 7.143 12.7368 7.143 12.5C7.143 12.2632 7.23708 12.036 7.40455 11.8686C7.57202 11.7011 7.79916 11.607 8.036 11.607H11.607V8.036C11.607 7.79916 11.7011 7.57202 11.8686 7.40455C12.036 7.23708 12.2632 7.143 12.5 7.143C12.7368 7.143 12.964 7.23708 13.1314 7.40455C13.2989 7.57202 13.393 7.79916 13.393 8.036V11.607H16.964C17.2008 11.607 17.428 11.7011 17.5954 11.8686C17.7629 12.036 17.857 12.2632 17.857 12.5C17.857 12.7368 17.7629 12.964 17.5954 13.1314C17.428 13.2989 17.2008 13.393 16.964 13.393Z" fill="#E51B23"/>
</svg>
