<svg width="46" height="46" viewBox="0 0 46 46" fill="none" xmlns="http://www.w3.org/2000/svg">
<path d="M22.744 2.1995e-08C18.2458 -0.000197761 13.8486 1.33349 10.1084 3.8324C6.3682 6.33131 3.45302 9.88321 1.73151 14.0389C0.00998783 18.1947 -0.440542 22.7676 0.436889 27.1793C1.31432 31.5911 3.4803 35.6436 6.66093 38.8244C9.84155 42.0051 13.894 44.1713 18.3057 45.0489C22.7174 45.9266 27.2904 45.4762 31.4461 43.7549C35.6019 42.0336 39.154 39.1185 41.6531 35.3784C44.1521 31.6383 45.486 27.2412 45.486 22.743C45.4794 16.7134 43.0813 10.9326 38.8178 6.66893C34.5543 2.40525 28.7736 0.00688194 22.744 2.1995e-08V2.1995e-08Z" fill="#E51B23"/>
<path d="M31.1185 28.441C31.316 28.6118 31.4761 28.8214 31.5889 29.0569C31.7017 29.2923 31.7648 29.5485 31.7743 29.8093C31.7837 30.0702 31.7393 30.3303 31.6437 30.5732C31.5482 30.8162 31.4036 31.0369 31.219 31.2215C31.0344 31.4061 30.8137 31.5506 30.5708 31.6462C30.3278 31.7417 30.0678 31.7861 29.8069 31.7767C29.546 31.7673 29.2899 31.7042 29.0544 31.5914C28.819 31.4786 28.6094 31.3184 28.4386 31.121L22.7386 25.421L17.0386 31.121C16.6754 31.4351 16.2068 31.6001 15.7269 31.5828C15.247 31.5655 14.7915 31.3671 14.452 31.0275C14.1125 30.688 13.9141 30.2325 13.8967 29.7526C13.8794 29.2728 14.0444 28.8042 14.3586 28.441L20.0586 22.741L14.3586 17.041C14.0444 16.6778 13.8794 16.2092 13.8967 15.7293C13.9141 15.2495 14.1125 14.794 14.452 14.4544C14.7915 14.1149 15.247 13.9165 15.7269 13.8992C16.2068 13.8819 16.6754 14.0468 17.0386 14.361L22.7386 20.061L28.4386 14.361C28.8017 14.0468 29.2703 13.8819 29.7502 13.8992C30.2301 13.9165 30.6856 14.1149 31.0251 14.4544C31.3646 14.794 31.563 15.2495 31.5804 15.7293C31.5977 16.2092 31.4327 16.6778 31.1185 17.041L25.4186 22.741L31.1185 28.441Z" fill="#FAFAFA"/>
</svg>
