<svg width="30" height="31" viewBox="0 0 30 31" fill="none" xmlns="http://www.w3.org/2000/svg">
<path fill-rule="evenodd" clip-rule="evenodd" d="M9.40011 4.70602C9.24 4.92288 9.1642 5.19055 9.18683 5.45917C9.20946 5.72778 9.32898 5.979 9.52311 6.16602C9.73358 6.37565 10.0185 6.49336 10.3156 6.49336C10.6127 6.49336 10.8976 6.37565 11.1081 6.16602L13.4201 3.83902V9.86001H15.6601V3.83902L17.9721 6.16602L18.0971 6.27402C18.3241 6.44616 18.6081 6.52534 18.8915 6.49544C19.1748 6.46554 19.436 6.3288 19.6221 6.11307C19.8081 5.89733 19.905 5.6188 19.8929 5.33418C19.8808 5.04956 19.7607 4.78023 19.5571 4.58102L15.3281 0.334016L15.2001 0.216016C15.0103 0.0747361 14.7797 -0.00106716 14.5431 1.5596e-05C14.3942 -0.000773483 14.2466 0.0283876 14.1092 0.0857652C13.9718 0.143143 13.8473 0.227566 13.7431 0.334016L9.51111 4.58102L9.40011 4.70602ZM6.15011 9.86701C4.48105 9.9621 2.91226 10.6946 1.76776 11.9131C0.623265 13.1317 -0.00951981 14.7433 0.00010828 16.415V23.636L0.00710825 23.945C0.0720473 25.6211 0.779671 27.2079 1.98321 28.3762C3.18674 29.5446 4.79382 30.2048 6.47111 30.22H22.6281L22.9281 30.213C24.5998 30.1176 26.1708 29.3832 27.3161 28.1618C28.4614 26.9403 29.0933 25.3254 29.0811 23.651V16.444L29.0741 16.134C29.0089 14.4581 28.3012 12.8716 27.0977 11.7034C25.8942 10.5353 24.2872 9.87519 22.6101 9.86001H15.6621V18.738L15.6521 18.894C15.6161 19.1776 15.473 19.4367 15.252 19.6181C15.0311 19.7995 14.7491 19.8894 14.4639 19.8695C14.1787 19.8495 13.912 19.7212 13.7184 19.5108C13.5249 19.3004 13.4192 19.0239 13.4231 18.738V9.86001H6.45711L6.15011 9.86701Z" fill="#E51B23"/>
</svg>
