<svg id="add_9_" data-name="add(9)" xmlns="http://www.w3.org/2000/svg" width="22" height="22" viewBox="0 0 22 22">
  <g id="Group_12046" data-name="Group 12046">
    <path id="Path_6398" data-name="Path 6398" d="M18.071,0H3.929A3.933,3.933,0,0,0,0,3.929V18.071A3.933,3.933,0,0,0,3.929,22H18.071A3.933,3.933,0,0,0,22,18.071V3.929A3.933,3.933,0,0,0,18.071,0ZM14.929,11.786H11.786v3.143a.786.786,0,1,1-1.571,0V11.786H7.071a.786.786,0,1,1,0-1.571h3.143V7.071a.786.786,0,1,1,1.571,0v3.143h3.143a.786.786,0,1,1,0,1.571Z" fill="#e51b23"/>
  </g>
</svg>
