<svg xmlns="http://www.w3.org/2000/svg" width="19.246" height="19.246" viewBox="0 0 19.246 19.246">
  <g id="Graph" transform="translate(-2 -2)">
    <path id="Path_6363" data-name="Path 6363" d="M9.845,5.531a1.022,1.022,0,0,1,.1.316l.268,3.984.133,2a2.058,2.058,0,0,0,.1.607,1,1,0,0,0,.967.607l6.406-.419a1.057,1.057,0,0,1,.745.288,1.02,1.02,0,0,1,.307.586l.011.135a8.355,8.355,0,0,1-6.624,7.523,8.522,8.522,0,0,1-9.23-4.1,7.9,7.9,0,0,1-.959-3.027A5.792,5.792,0,0,1,2,13.082a8.368,8.368,0,0,1,6.72-8.158A1.05,1.05,0,0,1,9.845,5.531Z" transform="translate(0 -0.11)" fill="#e41b23"/>
    <path id="Path_6364" data-name="Path 6364" d="M12.838,2a9.088,9.088,0,0,1,8.786,7.517l-.007.031-.019.046,0,.125a.77.77,0,0,1-.184.454.8.8,0,0,1-.445.261l-.105.014-7.391.479a.882.882,0,0,1-.673-.218.85.85,0,0,1-.277-.517l-.5-7.38a.117.117,0,0,1,0-.077.755.755,0,0,1,.249-.534A.784.784,0,0,1,12.838,2Z" transform="translate(-0.378 0)" fill="#e41b23" opacity="0.4"/>
  </g>
</svg>
