<?xml version="1.0" encoding="iso-8859-1"?>
<!-- Generator: Adobe Illustrator 19.0.0, SVG Export Plug-In . SVG Version: 6.00 Build 0)  -->
<svg version="1.1" id="Layer_1" xmlns="http://www.w3.org/2000/svg" xmlns:xlink="http://www.w3.org/1999/xlink" x="0px" y="0px"
	 viewBox="0 0 511.995 511.995" style="enable-background:new 0 0 511.995 511.995;" xml:space="preserve">
<g>
	<path style="fill:#EFBF8B;" d="M239.775,378.416v93.663c0,15.471-12.808,27.952-28.404,27.388
		c-14.851-0.519-26.406-13.181-26.406-28.043v-93.009l24.589-14.49L239.775,378.416z"/>
	<path style="fill:#EFBF8B;" d="M329.15,378.416v93.663c0,7.572-3.069,14.422-8.023,19.387c-4.965,4.954-11.815,8.023-19.387,8.023
		c-15.133,0-27.399-12.267-27.399-27.411v-93.663l24.928-9.129L329.15,378.416z"/>
</g>
<g>
	<path style="fill:#E5AE7B;" d="M200.764,471.413v-93.009l18.043-17.6l-8.489-7.13l-25.353,24.728v93.009
		c0,14.862,11.556,27.523,26.406,28.043c3.117,0.113,6.12-0.304,8.934-1.152C208.907,494.809,200.764,483.887,200.764,471.413z"/>
	<path style="fill:#E5AE7B;" d="M290.139,471.413v-93.009l18.043-17.6l-8.49-7.13l-25.353,24.728v93.009
		c0,14.862,11.556,27.523,26.406,28.043c3.117,0.113,6.12-0.304,8.934-1.152C298.282,494.809,290.139,483.887,290.139,471.413z"/>
</g>
<path style="fill:#FD6568;" d="M329.15,350.464v27.952h-54.81v-23.19c0-4.773-1.941-9.084-5.067-12.21
	c-3.126-3.126-7.448-5.067-12.221-5.067c-9.536,0-17.277,7.741-17.277,17.277v23.19h-54.81v-27.952v-42.013l78.474-17.875
	l65.711,17.875V350.464z"/>
<polygon style="fill:#606275;" points="479.034,268.39 479.034,314.15 430.36,314.15 430.36,222.619 479.034,222.619 "/>
<polygon style="fill:#515260;" points="442.178,222.619 442.178,314.15 442.178,331.302 405.333,331.302 405.333,268.39 
	405.333,205.478 442.178,205.478 "/>
<polygon style="fill:#606275;" points="76.019,222.619 76.019,314.15 32.611,314.15 32.611,268.39 32.611,222.619 "/>
<polygon style="fill:#6F7282;" points="76.019,246.29 76.019,290.478 32.611,290.478 32.611,268.387 32.611,246.29 "/>
<polygon style="fill:#515260;" points="106.311,268.39 106.311,331.302 69.455,331.302 69.455,314.15 69.455,222.619 
	69.455,205.478 106.311,205.478 "/>
<polygon style="fill:#60616D;" points="106.311,268.39 106.311,298.757 69.455,298.757 69.455,290.478 69.455,246.297 
	69.455,238.023 106.311,238.023 "/>
<polygon style="fill:#6F7282;" points="435.625,246.29 435.625,290.478 479.034,290.478 479.034,268.387 479.034,246.29 "/>
<polygon style="fill:#60616D;" points="405.333,268.39 405.333,298.757 442.189,298.757 442.189,290.478 442.189,246.297 
	442.189,238.023 405.333,238.023 "/>
<path style="fill:#E5AE7B;" d="M284.643,155.283l20.832,61.471c0,15.911-57.063,41.378-72.975,41.378
	c-7.967,0-38.421-40.678-43.635-45.892c-5.214-5.225,12.789-29.603,12.789-37.559L227,155.283v-0.451l-6.537-29.859
	c8.847,3.747,25.146,6.018,35.358,6.018c9.569,0,26.963-16.995,35.358-20.312l-6.537,44.154v0.451H284.643z"/>
<path style="fill:#FEE572;" d="M379.898,209.461c-1.016-30.378-26.587-54.178-56.977-54.178h-38.278v19.398
	c0,15.911-12.91,28.821-28.821,28.821c-7.967,0-15.167-3.227-20.38-8.441c-5.214-5.225-8.441-12.424-8.441-20.38v-19.398h-36.269
	c-30.401,0-55.961,23.799-56.977,54.178c-0.023,0.677-0.034,1.365-0.034,2.054v56.875h0.068c0.406-6.331,49.788-13.237,50.646,0
	l0.53,40.061H329.15V268.39h0.068c0.858-13.237,50.24-6.331,50.646,0h0.068v-56.875C379.932,210.826,379.92,210.137,379.898,209.461
	z"/>
<g>
	<path style="fill:#E5AE7B;" d="M329.523,79.224c0.192,2.11,0.282,4.254,0.282,6.421c0,31.281-19.41,58.037-46.854,68.848
		c-8.396,3.318-17.559,5.135-27.128,5.135c-10.213,0-19.951-2.065-28.799-5.812c-26.553-11.228-45.184-37.522-45.184-68.171
		c0-2.167,0.09-4.311,0.282-6.421c0.688,0.102,1.388,0.147,2.099,0.147l74.611-14.583l68.581,14.583
		C328.135,79.371,328.834,79.326,329.523,79.224z"/>
	<rect x="133.792" y="228.04" style="fill:#E5AE7B;" width="51.007" height="40.351"/>
	<rect x="328.927" y="228.04" style="fill:#E5AE7B;" width="51.007" height="40.351"/>
</g>
<path style="fill:#666666;" d="M319.389,47.774L251.83,59.29l-59.574-11.516c12.91-21.622,36.54-36.111,63.567-36.111
	S306.479,26.152,319.389,47.774z"/>
<g>
	<circle style="fill:#EFBF8B;" cx="159.115" cy="270.2" r="25.505"/>
	<circle style="fill:#EFBF8B;" cx="354.543" cy="270.2" r="25.505"/>
</g>
<path style="fill:#E0555C;" d="M338.584,52.401c2.866,2.855,4.627,6.805,4.627,11.172c0,8.012-5.947,14.625-13.688,15.652
	c-0.688,0.102-1.388,0.147-2.11,0.147H184.221c-0.711,0-1.411-0.045-2.099-0.147c-3.532-0.463-6.681-2.088-9.073-4.48
	c-2.855-2.855-4.627-6.805-4.627-11.172c0-8.734,7.076-15.799,15.799-15.799h8.035h127.134h8.023
	C331.78,47.774,335.729,49.546,338.584,52.401z"/>
<path style="fill:#EFBF8B;" d="M329.794,85.634c0,31.62-19.827,58.602-47.734,69.187c-4.243,1.614-8.678,2.844-13.26,3.656
	c-4.582-0.801-9.016-2.043-13.26-3.656h-0.011c-27.907-10.585-47.746-37.567-47.746-69.187c0-2.167,0.09-4.311,0.282-6.421
	c0.688,0.102,1.399,0.147,2.11,0.147l56.356-14.896l60.881,14.896c0.711,0,1.411-0.045,2.099-0.147
	C329.703,81.323,329.794,83.466,329.794,85.634z"/>
<path style="fill:#7D7878;" d="M319.378,47.761l-52.779,10.664l-48.4-10.664c10.799-18.078,29.092-31.168,50.589-34.96
	C290.286,16.593,308.578,29.684,319.378,47.761z"/>
<path style="fill:#FD6568;" d="M343.211,63.56c0,8.023-5.97,14.636-13.7,15.652c-0.688,0.102-1.388,0.147-2.099,0.147H211.913
	c-0.711,0-1.422-0.045-2.11-0.147c-3.51-0.463-6.669-2.088-9.062-4.48c-2.855-2.855-4.627-6.805-4.627-11.172
	c0-8.723,7.076-15.799,15.799-15.799h115.499c4.367,0,8.317,1.772,11.172,4.627C341.439,55.254,343.211,59.204,343.211,63.56z"/>
<polygon style="fill:#E0555C;" points="200.764,304.422 200.764,378.416 184.966,378.416 184.966,308.451 "/>
<path style="fill:#EAD26C;" d="M184.966,219.011v89.439h15.799V234.81C200.764,226.085,193.691,219.011,184.966,219.011
	L184.966,219.011z"/>
<path style="fill:#E0555C;" d="M261.906,337.949c15.599,0,28.245,12.646,28.245,28.245v12.211l-0.034,0.011H274.34v-23.19
	c0-4.773-1.941-9.084-5.067-12.21c-3.126-3.126-7.448-5.067-12.221-5.067L261.906,337.949L261.906,337.949z"/>
<path d="M504.665,261.477H486.53v-38.435c0-4.051-3.284-7.335-7.335-7.335H449.68V205.9c0-4.051-3.284-7.335-7.335-7.335h-36.849
	c-4.051,0-7.335,3.284-7.335,7.335v55.577h-10.729v-49.54c0-0.764-0.014-1.526-0.038-2.294
	c-0.556-16.577-7.575-32.051-19.766-43.569c-12.083-11.417-27.901-17.705-44.542-17.705H308.17
	c17.795-14.929,29.134-37.313,29.134-62.303c0-0.37-0.019-0.731-0.024-1.099c7.918-3.677,13.436-11.684,13.436-20.974
	c0-12.756-10.377-23.134-23.134-23.134h-4.008c-15.012-22.372-40.526-36.111-67.588-36.111s-52.573,13.739-67.588,36.111h-4.008
	c-12.756,0-23.134,10.377-23.134,23.134c0,9.291,5.517,17.298,13.437,20.975c-0.005,0.368-0.024,0.729-0.024,1.098
	c0,24.99,11.34,47.374,29.134,62.303h-12.909c-16.64,0-32.459,6.288-44.542,17.705c-12.191,11.518-19.21,26.992-19.766,43.566
	c-0.026,0.764-0.038,1.529-0.038,2.298v49.54h-12.74V205.9c0-4.051-3.284-7.335-7.335-7.335H69.621
	c-4.051,0-7.335,3.284-7.335,7.335v9.808H32.772c-4.051,0-7.335,3.284-7.335,7.335v38.435H7.302c-4.051,0-7.302,3.284-7.302,7.335
	s3.318,7.335,7.369,7.335h18.068v38.435c0,4.051,3.284,7.335,7.335,7.335h29.514v9.808c0,4.051,3.284,7.335,7.335,7.335h36.85
	c4.051,0,7.335-3.284,7.335-7.335v-55.577h13.324c2.862,15.291,16.046,27.062,31.839,27.316c0.184,0.002,0.367,0.004,0.55,0.004
	c6.615,0,12.914-1.925,18.273-5.519v173.899c0,18.859,15.022,34.728,33.476,35.373c9.524,0.343,18.533-3.101,25.377-9.703
	c6.852-6.609,10.627-15.493,10.627-25.016V355.648c0-5.482,4.46-9.942,9.942-9.942c2.655,0,5.153,1.036,7.035,2.919
	c1.882,1.881,2.918,4.375,2.918,7.022v116.853c0,19.159,15.582,34.746,34.734,34.746c9.273,0,17.998-3.61,24.579-10.178
	c6.556-6.571,10.166-15.296,10.166-24.568V298.243c5.261,3.401,11.383,5.225,17.808,5.225c0.183,0,0.367-0.001,0.55-0.005
	c15.793-0.254,28.977-12.026,31.839-27.316h11.313v55.577c0,4.051,3.284,7.335,7.335,7.335h36.849c4.051,0,7.335-3.284,7.335-7.335
	v-9.808h29.515c4.051,0,7.335-3.284,7.335-7.335v-38.435h18.135c4.051,0,7.335-3.284,7.335-7.335S508.716,261.477,504.665,261.477z
	 M99.137,324.389H76.956v-25.77c0-4.051-3.284-7.335-7.335-7.335s-7.335,3.284-7.335,7.335v8.627H40.107v-76.868h22.179v40.029
	c0,4.051,3.284,7.335,7.335,7.335s7.335-3.284,7.335-7.335v-57.173h22.18v111.154H99.137z M234.5,164.483
	c6.849,1.879,14.048,2.902,21.486,2.902s14.637-1.024,21.486-2.902v10.621c0,11.848-9.638,21.486-21.486,21.486
	c-11.848,0-21.486-9.638-21.486-21.486L234.5,164.483L234.5,164.483z M255.986,19.42c18.669,0,36.438,7.981,48.936,21.441H207.05
	C219.549,27.402,237.318,19.42,255.986,19.42z M189.365,87.128H290.97c4.051,0,7.335-3.284,7.335-7.335s-3.284-7.335-7.335-7.335
	H184.39c-4.667,0-8.464-3.797-8.464-8.464s3.796-8.464,8.464-8.464h143.193c4.667,0,8.464,3.797,8.464,8.464
	s-3.796,8.464-8.464,8.464h-10.657c-4.051,0-7.335,3.284-7.335,7.335s3.284,7.335,7.335,7.335h5.683
	c-0.571,36.26-30.226,65.587-66.622,65.587C219.593,152.716,189.936,123.389,189.365,87.128z M141.247,210.136
	c0.87-25.968,23.142-47.094,49.646-47.094h28.936v12.063c0,19.937,16.22,36.156,36.156,36.156s36.156-16.22,36.156-36.156v-12.063
	h30.943c26.503,0,48.775,21.126,49.646,47.087c0.019,0.601,0.029,1.205,0.029,1.81v31.291c-5.179-3.44-11.386-5.449-18.056-5.449
	c-6.869,0-13.248,2.132-18.518,5.763v-48.646c0-4.051-3.284-7.335-7.335-7.335s-7.335,3.284-7.335,7.335v66.58H192.464v-14.783
	h-0.002v-51.797c0-4.051-3.284-7.335-7.335-7.335s-7.335,3.284-7.335,7.335v48.645c-5.27-3.631-11.649-5.763-18.518-5.763
	c-6.669,0-12.877,2.01-18.056,5.449v-31.291C141.218,211.337,141.227,210.736,141.247,210.136z M172.428,283.448
	c-3.519,3.529-8.249,5.429-13.222,5.347c-9.823-0.158-17.82-8.464-17.974-18.574c0.153-9.824,8.181-17.771,18.041-17.771
	c9.955,0,18.056,8.099,18.056,18.056h0.463C177.792,275.393,175.889,279.988,172.428,283.448z M257.216,331.037
	c-13.57,0-24.612,11.041-24.612,24.612v15.855h-21.756c-4.051,0-7.335,3.284-7.335,7.335s3.284,7.335,7.335,7.335h21.756v86.328
	c0,5.504-2.181,10.638-6.14,14.457c-3.952,3.811-9.171,5.8-14.671,5.601c-10.657-0.372-19.328-9.663-19.328-20.712v-155.64h87.221
	c4.051,0,7.335-3.284,7.335-7.335s-3.284-7.335-7.335-7.335h-87.221v-25.391H321.98v25.391h-10.697
	c-4.051,0-7.335,3.284-7.335,7.335s3.284,7.335,7.335,7.335h10.697v55.295h-40.14v-15.855c0-6.567-2.563-12.745-7.215-17.397
	C269.971,333.599,263.789,331.037,257.216,331.037z M316.11,486.697c-3.801,3.792-8.846,5.88-14.206,5.88
	c-11.064,0-20.064-9.005-20.064-20.076v-86.328h40.14v86.328C321.979,477.861,319.891,482.907,316.11,486.697z M354.772,288.795
	c-5.013,0.071-9.704-1.818-13.23-5.353c-2.479-2.479-4.143-5.55-4.893-8.891v-4.046c0-9.956,8.1-18.056,18.056-18.056
	c9.859,0,17.887,7.948,18.041,17.771C372.592,280.332,364.596,288.637,354.772,288.795z M471.86,307.247h-22.18v-8.627
	c0-4.051-3.284-7.335-7.335-7.335s-7.335,3.284-7.335,7.335v25.77h-22.179V213.235h22.179v57.173c0,4.051,3.284,7.335,7.335,7.335
	s7.335-3.284,7.335-7.335v-40.029h22.18V307.247z"/>
<g>
</g>
<g>
</g>
<g>
</g>
<g>
</g>
<g>
</g>
<g>
</g>
<g>
</g>
<g>
</g>
<g>
</g>
<g>
</g>
<g>
</g>
<g>
</g>
<g>
</g>
<g>
</g>
<g>
</g>
</svg>
