<?xml version="1.0" encoding="iso-8859-1"?>
<!-- Generator: Adobe Illustrator 19.0.0, SVG Export Plug-In . SVG Version: 6.00 Build 0)  -->
<svg version="1.1" id="Layer_1" xmlns="http://www.w3.org/2000/svg" xmlns:xlink="http://www.w3.org/1999/xlink" x="0px" y="0px"
	 viewBox="0 0 511.995 511.995" style="enable-background:new 0 0 511.995 511.995;" xml:space="preserve">
<g>
	<g>
		<path d="M504.665,261.477H486.53v-38.435c0-4.051-3.284-7.335-7.335-7.335H449.68V205.9c0-4.051-3.284-7.335-7.335-7.335h-36.849
			c-4.051,0-7.335,3.284-7.335,7.335v55.577h-10.729v-49.54c0-0.764-0.014-1.526-0.038-2.294
			c-0.556-16.577-7.575-32.051-19.766-43.569c-12.083-11.417-27.901-17.705-44.542-17.705H308.17
			c17.795-14.929,29.134-37.313,29.134-62.303c0-0.37-0.019-0.731-0.024-1.099c7.919-3.677,13.436-11.684,13.436-20.974
			c0-12.756-10.377-23.134-23.134-23.134h-4.008c-15.012-22.372-40.526-36.111-67.588-36.111s-52.573,13.739-67.588,36.111h-4.008
			c-12.756,0-23.134,10.377-23.134,23.134c0,9.291,5.517,17.298,13.437,20.975c-0.005,0.368-0.024,0.729-0.024,1.098
			c0,24.99,11.34,47.374,29.134,62.303h-12.909c-16.64,0-32.459,6.288-44.542,17.705c-12.191,11.518-19.21,26.992-19.766,43.566
			c-0.026,0.764-0.038,1.529-0.038,2.298v49.54h-12.74V205.9c0-4.051-3.284-7.335-7.335-7.335H69.621
			c-4.051,0-7.335,3.284-7.335,7.335v9.808H32.772c-4.051,0-7.335,3.284-7.335,7.335v38.435H7.302c-4.051,0-7.302,3.284-7.302,7.335
			s3.318,7.335,7.369,7.335h18.068v38.435c0,4.051,3.284,7.335,7.335,7.335h29.514v9.808c0,4.051,3.284,7.335,7.335,7.335h36.85
			c4.051,0,7.335-3.284,7.335-7.335v-55.577h13.324c2.862,15.291,16.046,27.062,31.839,27.316c0.184,0.002,0.367,0.005,0.55,0.005
			c6.615,0,12.914-1.925,18.273-5.519v173.899c0,18.859,15.022,34.728,33.476,35.373c9.524,0.343,18.533-3.101,25.377-9.703
			c6.852-6.609,10.627-15.493,10.627-25.016V355.648c0-5.482,4.46-9.942,9.942-9.942c2.655,0,5.153,1.036,7.035,2.919
			c1.882,1.881,2.918,4.375,2.918,7.022v116.853c0,19.159,15.582,34.746,34.734,34.746c9.273,0,17.998-3.61,24.579-10.178
			c6.556-6.571,10.166-15.296,10.166-24.568V298.243c5.261,3.401,11.383,5.225,17.808,5.225c0.183,0,0.367-0.001,0.55-0.005
			c15.793-0.254,28.977-12.026,31.839-27.316h11.313v55.577c0,4.051,3.284,7.335,7.335,7.335h36.849
			c4.051,0,7.335-3.284,7.335-7.335v-9.808h29.515c4.051,0,7.335-3.284,7.335-7.335v-38.435h18.135c4.051,0,7.335-3.284,7.335-7.335
			S508.716,261.477,504.665,261.477z M76.956,324.389v-25.77c0-4.051-3.284-7.335-7.335-7.335s-7.335,3.284-7.335,7.335v8.627
			H40.107v-76.868h22.179v40.029c0,4.051,3.284,7.335,7.335,7.335s7.335-3.284,7.335-7.335v-57.173h22.18v111.154H76.956z
			 M255.986,19.42c18.669,0,36.438,7.981,48.936,21.441H207.05C219.549,27.402,237.318,19.42,255.986,19.42z M189.365,87.128H290.97
			c4.051,0,7.335-3.284,7.335-7.335s-3.284-7.335-7.335-7.335H184.39c-4.667,0-8.464-3.797-8.464-8.463
			c0-4.666,3.796-8.464,8.464-8.464h143.193c4.667,0,8.464,3.797,8.464,8.464c0,4.666-3.796,8.463-8.464,8.463h-10.657
			c-4.051,0-7.335,3.284-7.335,7.335s3.284,7.335,7.335,7.335h5.683c-0.571,36.26-30.226,65.587-66.622,65.587
			C219.593,152.716,189.936,123.389,189.365,87.128z M277.472,164.483v10.621c0,11.848-9.638,21.486-21.486,21.486
			c-11.848,0-21.486-9.638-21.486-21.486v-10.621h0c6.849,1.879,14.048,2.902,21.486,2.902
			C263.424,167.385,270.623,166.362,277.472,164.483z M172.428,283.448c-3.519,3.529-8.249,5.429-13.222,5.347
			c-9.823-0.158-17.82-8.464-17.974-18.573c0.154-9.824,8.181-17.771,18.041-17.771c9.955,0,18.056,8.099,18.056,18.056h0.463
			C177.792,275.393,175.889,279.988,172.428,283.448z M321.979,472.502c0,5.359-2.088,10.405-5.869,14.195
			c-3.801,3.792-8.846,5.88-14.206,5.88c-11.064,0-20.064-9.005-20.064-20.076v-86.328h40.14V472.502z M321.98,301.538h-10.697
			c-4.051,0-7.335,3.284-7.335,7.335s3.284,7.335,7.335,7.335h10.697v55.295h-40.14v-15.855c0-6.567-2.563-12.745-7.215-17.396
			c-4.654-4.653-10.836-7.214-17.409-7.214c-13.57,0-24.612,11.041-24.612,24.612v15.855h-21.756c-4.051,0-7.335,3.284-7.335,7.335
			s3.284,7.335,7.335,7.335h21.756v86.328c0,5.504-2.181,10.638-6.14,14.457c-3.952,3.811-9.171,5.8-14.671,5.601
			c-10.657-0.372-19.328-9.663-19.328-20.712v-155.64h87.221c4.051,0,7.335-3.284,7.335-7.335s-3.284-7.335-7.335-7.335h-87.221
			v-25.391H321.98V301.538z M354.772,288.795c-5.013,0.071-9.704-1.818-13.23-5.353c-2.479-2.479-4.143-5.55-4.893-8.891v-4.046
			c0-9.956,8.1-18.056,18.056-18.056c9.859,0,17.887,7.948,18.041,17.771C372.592,280.332,364.596,288.637,354.772,288.795z
			 M372.76,243.23c-5.179-3.44-11.386-5.449-18.056-5.449c-6.869,0-13.248,2.132-18.518,5.763v-48.646
			c0-4.051-3.284-7.335-7.335-7.335s-7.335,3.284-7.335,7.335v66.58H192.464v-14.783h-0.002v-51.797
			c0-4.051-3.284-7.335-7.335-7.335s-7.335,3.284-7.335,7.335v48.645c-5.27-3.631-11.649-5.763-18.518-5.763
			c-6.669,0-12.877,2.01-18.056,5.449v-31.291c0-0.6,0.009-1.201,0.029-1.801c0.87-25.968,23.142-47.094,49.646-47.094h28.936
			v12.063c0,19.937,16.22,36.156,36.156,36.156s36.156-16.22,36.156-36.156v-12.063h30.943c26.503,0,48.775,21.126,49.646,47.087
			c0.019,0.601,0.029,1.205,0.029,1.81V243.23z M471.86,307.247h-22.18v-8.627c0-4.051-3.284-7.335-7.335-7.335
			s-7.335,3.284-7.335,7.335v25.77h-22.179V213.235h22.179v57.173c0,4.051,3.284,7.335,7.335,7.335s7.335-3.284,7.335-7.335v-40.029
			h22.18V307.247z"/>
	</g>
</g>
<g>
</g>
<g>
</g>
<g>
</g>
<g>
</g>
<g>
</g>
<g>
</g>
<g>
</g>
<g>
</g>
<g>
</g>
<g>
</g>
<g>
</g>
<g>
</g>
<g>
</g>
<g>
</g>
<g>
</g>
</svg>
