<svg id="_x33_0" enable-background="new 0 0 64 64" height="512" viewBox="0 0 64 64" width="512" xmlns="http://www.w3.org/2000/svg"><g><g><g><path d="m36.79 14.84-.54 2.17-.01.01c-.54-.63-1.34-1.02-2.24-1.02h-1v-4.614c0-.766-.62-1.386-1.386-1.386h-9.614-1c-2.209 0-4 1.791-4 4v2h-1c-.9 0-1.7.39-2.24 1.02l-.01-.01-.54-2.17c-.14-.56-.21-1.13-.21-1.71 0-1.39.41-2.75 1.18-3.9l3.28-4.92c.48-.72 1.12-1.3 1.87-1.69.74-.4 1.58-.62 2.45-.62.8 0 1.59.19 2.32.55l.9.45.9-.45c1.722-.849 3.777-.753 5.51.552.462.348.851.79 1.172 1.271l3.238 4.857c.77 1.15 1.18 2.51 1.18 3.9 0 .58-.07 1.15-.21 1.71z" fill="#b27946"/></g><g><path d="m38 47v15h-4v-17c0-.55-.45-1-1-1h-12c-.55 0-1 .45-1 1v9h-1.17c-.53 0-1.04.21-1.42.59l-1.41 1.41c-2.21 0-4-1.79-4-4v-19.29c.02 0 .03-.01.05-.01l7.95-1.7v5c0 1.1.9 2 2 2h6c1.1 0 2-.9 2-2v-5l8 2z" fill="#b4dd7f"/></g><g><path d="m56 13.74c0 .17-.02.34-.07.51l-1.91 6.36v.01c-.27.23-.48.53-.62.88l-1.04 2.61c-.02.05-.04.11-.06.16-.72 1.04-1.93 1.73-3.3 1.73-2.21 0-4-1.79-4-4s1.79-4 4-4c.43 0 .85.07 1.25.2l2.49-5.61c.16-.36.51-.59.91-.59h.61c.96 0 1.74.78 1.74 1.74z" fill="#ff826e"/></g><g><path d="m25 59c0-1.66-1.34-3-3-3h-2v-2-9c0-.55.45-1 1-1h12c.55 0 1 .45 1 1v17h-12c.83 0 1.58-.34 2.12-.88s.88-1.29.88-2.12z" fill="#e6e9ed"/></g><g><path d="m20 54v2h2c1.66 0 3 1.34 3 3 0 .83-.34 1.58-.88 2.12s-1.29.88-2.12.88h-6c-5.52 0-10-4.48-10-10v-3.76c0-1.47.34-2.92 1-4.24l-.19-.38c-.53-1.07-.81-2.24-.81-3.43 0-1.81.63-3.49 1.7-4.81 1.06-1.32 2.55-2.28 4.3-2.67v19.29c0 2.21 1.79 4 4 4l1.41-1.41c.38-.38.89-.59 1.42-.59z" fill="#f0d0b4"/></g><g><path d="m57.3 20.7c-.43-.43-1.03-.7-1.69-.7-.6 0-1.16.22-1.59.61v.01c-.27.23-.48.53-.62.88l-1.04 2.61c-.02.05-.04.11-.06.16-.2.54-.3 1.12-.3 1.69v2.04l-3 9-2 6-3.1-5.59c-1.21-2.17-3.27-3.75-5.69-4.36l-.21-.05v14l4.08 3.4c1.24 1.03 2.81 1.6 4.42 1.6s3.11-.56 4.3-1.5c1.2-.95 2.08-2.29 2.44-3.86l1.09-4.72 2.86-12.4c.54-2.34.81-4.73.81-7.13 0-.66-.27-1.26-.7-1.69z" fill="#f0d0b4"/></g><g><path d="m34 16c.9 0 1.7.39 2.24 1.02.47.53.76 1.22.76 1.98 0 .83-.34 1.58-.88 2.12s-1.29.88-2.12.88h-1v-6z" fill="#f0d0b4"/></g><g><path d="m17 16v6h-1c-.83 0-1.58-.34-2.12-.88s-.88-1.29-.88-2.12c0-.76.29-1.45.76-1.98.54-.63 1.34-1.02 2.24-1.02z" fill="#f0d0b4"/></g><g><path d="m30 31v5c0 1.1-.9 2-2 2h-6c-1.1 0-2-.9-2-2v-5l1.1-3.31c.6.2 1.24.31 1.9.31h4c.66 0 1.3-.11 1.9-.31z" fill="#f0d0b4"/></g><g><path d="m22 10h-1c-2.209 0-4 1.791-4 4v2 6c0 2.65 1.72 4.9 4.1 5.69.6.2 1.24.31 1.9.31h4c.66 0 1.3-.11 1.9-.31 2.38-.79 4.1-3.04 4.1-5.69v-6-4.614c0-.766-.62-1.386-1.386-1.386z" fill="#f0d0b4"/></g></g><g><circle cx="21" cy="16" r="1"/><circle cx="29" cy="16" r="1"/><path d="m30 21h-2c0 1.103-.897 2-2 2h-4v2h4c2.206 0 4-1.794 4-4z"/><path d="m24 7h2v6h-2z"/><path d="m28 7h2v6h-2z"/><path d="m55.615 19c-.025 0-.048.005-.072.005l1.342-4.473c.076-.255.115-.52.115-.788 0-1.513-1.231-2.744-2.744-2.744h-.606c-.79 0-1.507.466-1.827 1.188l-2.158 4.856c-.221-.029-.442-.044-.665-.044-2.757 0-5 2.243-5 5 0 2.414 1.721 4.434 4 4.899v9.939l-1.23 3.689-2-3.6c-1.339-2.41-3.642-4.176-6.316-4.845l-7.679-1.92-.638-1.914c2.002-1.009 3.452-2.948 3.784-5.249h.079c2.206 0 4-1.794 4-4 0-.815-.248-1.572-.668-2.205l.428-1.711c.159-.637.24-1.293.24-1.951 0-1.593-.467-3.135-1.351-4.462l-3.277-4.916c-1.15-1.724-3.074-2.754-5.147-2.754-.956 0-1.912.226-2.767.653l-.458.229-.458-.229c-.854-.427-1.811-.653-2.767-.653-2.073 0-3.997 1.03-5.147 2.755l-3.277 4.917c-.884 1.326-1.351 2.868-1.351 4.461 0 .658.081 1.314.24 1.951l.428 1.71c-.42.633-.668 1.391-.668 2.206 0 2.206 1.794 4 4 4h.08c.331 2.301 1.781 4.24 3.784 5.249l-.631 1.892-7.388 1.583c-3.966.851-6.845 4.412-6.845 8.468 0 1.32.308 2.64.89 3.822-.583 1.326-.89 2.776-.89 4.222v3.764c0 6.065 4.935 11 11 11h23v-13.865l2.438 2.031c1.417 1.183 3.216 1.834 5.064 1.834 3.706 0 6.876-2.521 7.709-6.132l.952-4.127c2.222-.706 3.837-2.788 3.837-5.241v-15.115c0-1.866-1.519-3.385-3.385-3.385zm1.385 3.385c0 2.323-.265 4.649-.787 6.912l-2.701 11.701c-.004.001-.008.002-.012.002-1.93 0-3.5-1.57-3.5-3.5v-.338l3-9v-2.199c0-.511.096-1.011.286-1.485l1.043-2.606c.211-.53.717-.872 1.286-.872.764 0 1.385.622 1.385 1.385zm-11-.385c0-1.654 1.346-3 3-3 .32 0 .634.05.934.148l.858.282 2.857-6.43h.606c.411 0 .745.334.745.744 0 .073-.011.145-.031.214l-1.843 6.142c-.271.296-.498.638-.654 1.028l-1.043 2.606c-.003.007-.003.014-.006.021-.565.778-1.46 1.245-2.423 1.245-1.654 0-3-1.346-3-3zm4 4.891c.346-.071.68-.177 1-.317v1.265l-1 3zm-16-5.891v-4c1.103 0 2 .897 2 2s-.897 2-2 2zm-20-2c0-1.103.897-2 2-2v4c-1.103 0-2-.897-2-2zm4 3v-8c0-1.654 1.346-3 3-3h1v-2h-1c-2.757 0-5 2.243-5 5v1c-.582 0-1.132.131-1.631.356l-.189-.757c-.119-.478-.18-.972-.18-1.466 0-1.197.351-2.356 1.015-3.353l3.277-4.916c.778-1.167 2.08-1.864 3.483-1.864.646 0 1.294.153 1.872.442l1.353.676 1.353-.676c.578-.289 1.225-.442 1.872-.442 1.403 0 2.705.697 3.483 1.864l3.277 4.916c.664.997 1.015 2.156 1.015 3.353 0 .495-.061.988-.18 1.466l-.189.757c-.499-.225-1.049-.356-1.631-.356v-4h-2v11c0 2.757-2.243 5-5 5h-4c-2.757 0-5-2.243-5-5zm5 7h4c.424 0 .837-.044 1.24-.117l.76 2.279v4.838c0 .551-.448 1-1 1h-6c-.552 0-1-.449-1-1v-4.838l.76-2.279c.403.073.816.117 1.24.117zm-7 32c-4.963 0-9-4.038-9-9v-3.764c0-1.308.31-2.618.895-3.789l.223-.447-.415-.831c-.46-.918-.703-1.948-.703-2.977 0-2.666 1.625-5.043 4-6.089v17.897c0 2.757 2.243 5 5 5h.414l1.707-1.707c.187-.186.444-.293.707-.293h.172v2h3c1.103 0 2 .897 2 2s-.897 2-2 2zm17 0h-7.556c.344-.591.556-1.268.556-2 0-2.206-1.794-4-4-4h-1v-10h12zm2 0v-16c0-1.103-.897-2-2-2h-12c-1.103 0-2 .897-2 2v8h-.172c-.801 0-1.555.312-2.121.879l-1.096 1.096c-1.471-.191-2.611-1.453-2.611-2.975v-18.477l6-1.286v3.763c0 1.654 1.346 3 3 3h6c1.654 0 3-1.346 3-3v-3.719l6 1.5v27.219zm11.502-10c-1.381 0-2.724-.486-3.784-1.37l-3.718-3.098v-12.165c1.693.681 3.128 1.923 4.022 3.533l2.89 5.202-.861 2.582 1.896.633 1.942-5.826c.906 1.391 2.421 2.347 4.165 2.487l-.794 3.44c-.62 2.698-2.989 4.582-5.758 4.582zm9.26-10.851 1.238-5.366v2.717c0 1.064-.487 2.006-1.238 2.649z"/></g></g></svg>