<svg xmlns="http://www.w3.org/2000/svg" width="43.663" height="43.663" viewBox="0 0 43.663 43.663">
  <path id="dumbell_1_" data-name="dumbell(1)" d="M15.6,24.393a2.468,2.468,0,0,1,0,3.493l-2.178,2.178a2.473,2.473,0,0,1-3.493,0L.813,20.95a2.473,2.473,0,0,1,0-3.493l2.178-2.178a2.468,2.468,0,0,1,3.493,0ZM1.181,23.324a.5.5,0,0,0-.765.082,2.45,2.45,0,0,0,.31,3.1l3.65,3.65a2.449,2.449,0,0,0,3.1.311.5.5,0,0,0,.083-.766ZM17.1,10.417a.989.989,0,0,0-1.4,0L10.42,15.7a.988.988,0,0,0,0,1.4l3.363,3.363a.989.989,0,0,0,1.4,0l5.279-5.279a.988.988,0,0,0,0-1.4ZM29.7,7.55a.5.5,0,0,0,.766-.083,2.45,2.45,0,0,0-.312-3.095L26.505.723A2.45,2.45,0,0,0,23.41.411a.5.5,0,0,0-.082.765ZM20.953.81a2.473,2.473,0,0,0-3.493,0L15.282,2.989a2.468,2.468,0,0,0,0,3.493L24.4,15.6a2.468,2.468,0,0,0,3.493,0l2.178-2.178a2.473,2.473,0,0,0,0-3.493Z" transform="translate(21.829 -0.002) rotate(45)" fill="#e41b23"/>
</svg>
