<svg xmlns="http://www.w3.org/2000/svg" width="18.339" height="18.339" viewBox="0 0 18.339 18.339">
  <g id="edit_9_" data-name="edit(9)" transform="translate(0 -0.004)">
    <g id="Group_12071" data-name="Group 12071" transform="translate(0 1.314)">
      <g id="Group_12070" data-name="Group 12070">
        <path id="Path_6419" data-name="Path 6419" d="M15.064,42a.655.655,0,0,0-.655.655V49.2a.655.655,0,0,1-.655.655H1.965A.655.655,0,0,1,1.31,49.2V36.1a.655.655,0,0,1,.655-.655H9.824a.655.655,0,1,0,0-1.31H1.965A1.965,1.965,0,0,0,0,36.1V49.2a1.965,1.965,0,0,0,1.965,1.965H13.754A1.965,1.965,0,0,0,15.719,49.2v-6.55A.655.655,0,0,0,15.064,42Z" transform="translate(0 -34.137)" fill="#e51b23"/>
      </g>
    </g>
    <g id="Group_12073" data-name="Group 12073" transform="translate(3.93 0.004)">
      <g id="Group_12072" data-name="Group 12072">
        <path id="Path_6420" data-name="Path 6420" d="M116.083.738a2.507,2.507,0,0,0-3.546,0L103.91,9.365a.662.662,0,0,0-.158.256l-1.31,3.93a.655.655,0,0,0,.621.862.665.665,0,0,0,.207-.033l3.93-1.31a.655.655,0,0,0,.256-.158l8.627-8.627A2.507,2.507,0,0,0,116.083.738Z" transform="translate(-102.409 -0.004)" fill="#e51b23"/>
      </g>
    </g>
  </g>
</svg>
