<svg xmlns="http://www.w3.org/2000/svg" width="19.245" height="19.246" viewBox="0 0 19.245 19.246">
  <g id="help-web-button" transform="translate(-0.008)">
    <path id="Path_6354" data-name="Path 6354" d="M9.631,0a9.623,9.623,0,1,0,9.622,9.618A9.621,9.621,0,0,0,9.631,0Zm.686,14.972a1.133,1.133,0,0,1-.776.3,1.172,1.172,0,0,1-.794-.295,1.033,1.033,0,0,1-.34-.825,1.062,1.062,0,0,1,.329-.791,1.109,1.109,0,0,1,.806-.321,1.1,1.1,0,0,1,1.112,1.111A1.043,1.043,0,0,1,10.317,14.972ZM13.1,8.063a3.4,3.4,0,0,1-.612.825q-.354.347-1.272,1.168a5.266,5.266,0,0,0-.406.406,1.656,1.656,0,0,0-.228.321,1.546,1.546,0,0,0-.116.291q-.041.145-.124.511a.83.83,0,0,1-.888.776.909.909,0,0,1-.653-.254,1,1,0,0,1-.264-.753,2.777,2.777,0,0,1,.194-1.086,2.744,2.744,0,0,1,.514-.806,11.8,11.8,0,0,1,.866-.825q.478-.418.69-.63a2.133,2.133,0,0,0,.358-.474,1.141,1.141,0,0,0,.145-.567,1.316,1.316,0,0,0-.444-1.007,1.621,1.621,0,0,0-1.145-.41,1.585,1.585,0,0,0-1.209.414,3.3,3.3,0,0,0-.656,1.22q-.254.843-.963.843a.947.947,0,0,1-.705-.295A.9.9,0,0,1,5.9,7.094a2.7,2.7,0,0,1,.455-1.436,3.5,3.5,0,0,1,1.328-1.2,4.177,4.177,0,0,1,2.037-.478,4.345,4.345,0,0,1,1.91.4,3.1,3.1,0,0,1,1.28,1.086,2.664,2.664,0,0,1,.451,1.492A2.3,2.3,0,0,1,13.1,8.063Z" transform="translate(0)" fill="#e41b23"/>
  </g>
</svg>
