<svg xmlns="http://www.w3.org/2000/svg" width="15.82" height="18" viewBox="0 0 15.82 18">
  <g id="user_27_" data-name="user(27)" transform="translate(-31)">
    <g id="Group_11929" data-name="Group 11929" transform="translate(34.164)">
      <g id="Group_11928" data-name="Group 11928">
        <path id="Path_6241" data-name="Path 6241" d="M125.746,0a4.746,4.746,0,1,0,4.746,4.746A4.751,4.751,0,0,0,125.746,0Z" transform="translate(-121)" fill="#c7c7c7"/>
      </g>
    </g>
    <g id="Group_11931" data-name="Group 11931" transform="translate(31 10.547)">
      <g id="Group_11930" data-name="Group 11930" transform="translate(0)">
        <path id="Path_6242" data-name="Path 6242" d="M44.815,302.046A6.766,6.766,0,0,0,39.965,300H37.855a6.766,6.766,0,0,0-4.85,2.046A6.917,6.917,0,0,0,31,306.926a.527.527,0,0,0,.527.527H46.293a.527.527,0,0,0,.527-.527A6.917,6.917,0,0,0,44.815,302.046Z" transform="translate(-31 -300)" fill="#c7c7c7"/>
      </g>
    </g>
  </g>
</svg>
