<svg id="Capa_1" enable-background="new 0 0 512 512" height="512" viewBox="0 0 512 512" width="512" xmlns="http://www.w3.org/2000/svg"><g><g><path d="m10 436h122v66h-122z" fill="#a0e4a5"/><path d="m254 376v126h-122c0-19.05 0-94.901 0-126z" fill="#bfdbff"/><path d="m378 316v186h-124c0-10.779 0-175.178 0-186z" fill="#ffda8f"/><g fill="#ff7b79"><path d="m502 250v252h-124c0-7.278 0-245.317 0-252z"/><path d="m440 10v120h-184l60-60-60-60z"/></g></g><g><circle cx="502" cy="376" r="10"/><path d="m502 240h-52c0-9.924 0-219.714 0-230 0-5.522-4.478-10-10-10h-184c-4.045 0-7.691 2.437-9.239 6.173-1.547 3.737-.691 8.038 2.168 10.898l52.928 52.929-52.929 52.929c-2.859 2.86-3.715 7.161-2.168 10.898 1.548 3.736 5.194 6.173 9.239 6.173h174v100h-52c-5.522 0-10 4.478-10 10v56h-113.999c-5.522 0-10 4.478-10 10v50h-112c-5.523 0-10 4.478-10 10v50h-112c-5.523 0-10 4.478-10 10v66c0 5.522 4.477 10 10 10h492c5.522 0 10-4.478 10-10v-81c0-5.522-4.478-10-10-10s-10 4.478-10 10v71h-104v-232h104v71c0 5.522 4.478 10 10 10s10-4.478 10-10v-81c0-5.522-4.478-10-10-10zm-178.929-162.929c3.905-3.905 3.905-10.237 0-14.143l-42.928-42.928h149.857v100h-149.857zm-181.071 308.929h102v106h-102c0-10.579 0-95.391 0-106zm-122 60h102v46h-102zm244-120h104v166h-104z"/></g></g></svg>