<svg xmlns="http://www.w3.org/2000/svg" width="14.577" height="16.886" viewBox="0 0 14.577 16.886">
  <g id="lock" transform="translate(-34.88)">
    <path id="Path_6229" data-name="Path 6229" d="M90.134,5.22a3.606,3.606,0,1,1,7.211,0v1.7h1.614V5.22a5.22,5.22,0,1,0-10.439,0v1.7h1.614Z" transform="translate(-51.864)" fill="#e41b23"/>
    <path id="Path_6230" data-name="Path 6230" d="M48.794,239.02H35.542a.662.662,0,0,0-.662.662v7.648a.662.662,0,0,0,.662.662H48.794a.662.662,0,0,0,.662-.662v-7.648A.662.662,0,0,0,48.794,239.02Zm-6.129,7.209a.5.5,0,1,1-.993,0v-.044a.5.5,0,0,1,.993,0Zm.068-2.387a.094.094,0,0,0-.068.088v.44a.5.5,0,0,1-.993,0v-.44a1.086,1.086,0,0,1,.753-1.032.823.823,0,1,0-1.078-.782.5.5,0,1,1-.993,0,1.816,1.816,0,1,1,2.38,1.726Z" transform="translate(0 -231.106)" fill="#e41b23"/>
  </g>
</svg>
