<svg xmlns="http://www.w3.org/2000/svg" width="19.727" height="19.727" viewBox="0 0 19.727 19.727">
  <g id="logout-2" transform="translate(0 -0.004)">
    <path id="Path_6346" data-name="Path 6346" d="M12.329,10.689a.822.822,0,0,0-.822.822V14.8a.823.823,0,0,1-.822.822H8.219V3.292A1.657,1.657,0,0,0,7.1,1.729l-.243-.081h3.829a.823.823,0,0,1,.822.822V4.936a.822.822,0,1,0,1.644,0V2.47A2.469,2.469,0,0,0,10.685,0H1.849a.646.646,0,0,0-.088.018C1.722.019,1.684,0,1.644,0A1.645,1.645,0,0,0,0,1.648v14.8a1.657,1.657,0,0,0,1.119,1.563l4.947,1.649a1.7,1.7,0,0,0,.51.076A1.645,1.645,0,0,0,8.22,18.087v-.822h2.466A2.469,2.469,0,0,0,13.151,14.8V11.511a.822.822,0,0,0-.822-.822Zm0,0" fill="#e41b23"/>
    <path id="Path_6347" data-name="Path 6347" d="M286.133,110.194l-3.288-3.288a.822.822,0,0,0-1.4.581v2.466h-3.288a.822.822,0,1,0,0,1.644h3.288v2.466a.822.822,0,0,0,1.4.581l3.288-3.288a.821.821,0,0,0,0-1.162Zm0,0" transform="translate(-266.647 -102.552)" fill="#e41b23"/>
  </g>
</svg>
