<svg xmlns="http://www.w3.org/2000/svg" width="16.038" height="19.246" viewBox="0 0 16.038 19.246">
  <g id="notification_2_" data-name="notification(2)" transform="translate(-42.675)">
    <g id="Group_12014" data-name="Group 12014" transform="translate(42.675)">
      <g id="Group_12013" data-name="Group 12013" transform="translate(0)">
        <path id="Path_6348" data-name="Path 6348" d="M58.656,16.233l-1.377-2.3a6.817,6.817,0,0,1-.972-3.508V8.42A5.62,5.62,0,0,0,52.3,3.043V1.6a1.6,1.6,0,0,0-3.208,0V3.043A5.62,5.62,0,0,0,45.08,8.42v2.01a6.821,6.821,0,0,1-.971,3.507l-1.377,2.3a.4.4,0,0,0,.343.608H58.312a.4.4,0,0,0,.344-.607Z" transform="translate(-42.675)" fill="#e41b23"/>
      </g>
    </g>
    <g id="Group_12016" data-name="Group 12016" transform="translate(48.168 17.642)">
      <g id="Group_12015" data-name="Group 12015">
        <path id="Path_6349" data-name="Path 6349" d="M188.815,469.333a2.79,2.79,0,0,0,5.05,0Z" transform="translate(-188.815 -469.333)" fill="#e41b23"/>
      </g>
    </g>
  </g>
</svg>
