<svg xmlns="http://www.w3.org/2000/svg" width="17.663" height="17.664" viewBox="0 0 17.663 17.664">
  <path id="settings_4_" data-name="settings(4)" d="M16.695,6.914l-1.384-.176a6.955,6.955,0,0,0-.419-1.011l.854-1.1a1.094,1.094,0,0,0-.09-1.457L14.5,2.011a1.1,1.1,0,0,0-1.461-.093l-1.1.854a6.93,6.93,0,0,0-1.012-.419L10.75.972A1.1,1.1,0,0,0,9.656,0H8.008A1.1,1.1,0,0,0,6.914.969L6.738,2.353a6.85,6.85,0,0,0-1.012.419l-1.1-.854a1.1,1.1,0,0,0-1.457.09L2.011,3.166a1.1,1.1,0,0,0-.093,1.462l.854,1.1a6.874,6.874,0,0,0-.419,1.011L.972,6.914A1.1,1.1,0,0,0,0,8.008V9.656A1.1,1.1,0,0,0,.969,10.75l1.384.176a6.955,6.955,0,0,0,.419,1.011l-.854,1.1a1.094,1.094,0,0,0,.09,1.457l1.159,1.159a1.1,1.1,0,0,0,1.461.093l1.1-.854a6.8,6.8,0,0,0,1.011.419l.176,1.381a1.1,1.1,0,0,0,1.094.973H9.656a1.1,1.1,0,0,0,1.094-.969l.176-1.384a6.955,6.955,0,0,0,1.011-.419l1.1.854a1.094,1.094,0,0,0,1.457-.09L15.653,14.5a1.1,1.1,0,0,0,.093-1.461l-.854-1.1a6.8,6.8,0,0,0,.419-1.011l1.381-.176a1.1,1.1,0,0,0,.972-1.094V8.008a1.1,1.1,0,0,0-.969-1.094Zm-7.863,5.6a3.68,3.68,0,1,1,3.68-3.68,3.684,3.684,0,0,1-3.68,3.68Z" fill="#e41b23"/>
</svg>
