<?xml version="1.0" encoding="iso-8859-1"?>
<!-- Generator: Adobe Illustrator 19.0.0, SVG Export Plug-In . SVG Version: 6.00 Build 0)  -->
<svg version="1.1" id="Capa_1" xmlns="http://www.w3.org/2000/svg" xmlns:xlink="http://www.w3.org/1999/xlink" x="0px" y="0px"
	 viewBox="0 0 512.01 512.01" style="enable-background:new 0 0 512.01 512.01;" xml:space="preserve">
<path style="fill:#BBDEFB;" d="M367.235,78.239C345.851,30.382,298.2-0.31,245.784,0.01
	c-67.869-0.822-125.047,50.496-131.541,118.059c-34.568,4.517-60.565,33.749-61.013,68.608c0.585,38.815,32.48,69.832,71.296,69.333
	h99.37v-32c-17.673-0.004-31.997-14.334-31.993-32.007c0.002-8.478,3.368-16.608,9.359-22.606l32-32
	c4.029-3.964,9.045-6.777,14.528-8.149l3.691-0.725c5.597-0.862,11.324-0.199,16.576,1.92l4.011,1.963
	c2.331,1.36,4.481,3.009,6.4,4.907l32,32c12.536,12.457,12.6,32.718,0.143,45.255c-6.01,6.048-14.186,9.448-22.713,9.444v32h96
	c0.716,0.003,1.43-0.061,2.133-0.192c48.6-9.315,80.446-56.265,71.131-104.865c-8.223-42.903-46.187-73.622-89.862-72.713
	L367.235,78.239z"/>
<path style="fill:#455A64;" d="M319.896,234.677h-32v33.685h-64v-33.685h-32c-17.673,0-32,14.327-32,32V480.01
	c0,17.673,14.327,32,32,32h128c17.673,0,32-14.327,32-32V266.677C351.896,249.004,337.569,234.677,319.896,234.677z"/>
<path style="fill:#ECEFF1;" d="M191.896,234.677h128c5.891,0,10.667,5.306,10.667,11.852V448.01H181.229V246.529
	C181.229,239.983,186.005,234.677,191.896,234.677z"/>
<path style="fill:#2196F3;" d="M295.448,184.458l-32-32c-0.973-0.914-2.109-1.638-3.349-2.133l0,0l0,0
	c-1.741-0.658-3.626-0.842-5.461-0.533c-0.417,0.052-0.83,0.13-1.237,0.235c-1.841,0.406-3.538,1.306-4.907,2.603l-32,32
	c-4.092,4.237-3.975,10.99,0.262,15.083c4.134,3.992,10.687,3.992,14.82,0l13.781-13.781v208.747
	c0,5.891,4.776,10.667,10.667,10.667s10.667-4.776,10.667-10.667v-208.92l13.781,13.781c4.092,4.237,10.845,4.355,15.083,0.262
	c4.237-4.092,4.355-10.845,0.262-15.083c-0.086-0.089-0.173-0.176-0.262-0.262h-0.107V184.458z"/>
<path d="M319.896,512.01h-128c-17.673,0-32-14.327-32-32V266.677c0-17.673,14.327-32,32-32c5.891,0,10.667,4.776,10.667,10.667
	c0,5.891-4.776,10.667-10.667,10.667c-5.891,0-10.667,4.776-10.667,10.667V480.01c0,5.891,4.776,10.667,10.667,10.667h128
	c5.891,0,10.667-4.776,10.667-10.667V266.677c0-5.891-4.776-10.667-10.667-10.667s-10.667-4.776-10.667-10.667
	c0-5.891,4.776-10.667,10.667-10.667c17.673,0,32,14.327,32,32V480.01C351.896,497.683,337.569,512.01,319.896,512.01z"/>
<path d="M341.229,469.343H170.563c-5.891,0-10.667-4.776-10.667-10.667s4.776-10.667,10.667-10.667H341.23
	c5.891,0,10.667,4.776,10.667,10.667C351.896,464.568,347.12,469.343,341.229,469.343z"/>
<path d="M383.896,256.01c-5.891,0.006-10.671-4.765-10.677-10.656c-0.005-5.077,3.569-9.454,8.544-10.464
	c37.049-6.99,61.417-42.691,54.427-79.74c-6.233-33.035-35.588-56.615-69.189-55.578c-0.93,0.029-1.856,0.122-2.773,0.277
	l-3.264,0.363c-4.777,0.348-9.2-2.531-10.816-7.04c-16.221-43.508-57.931-72.216-104.363-71.829
	C185.823,20.344,136.36,68.052,135.192,128.01c0,5.891-4.776,10.667-10.667,10.667c-27.035-0.5-49.379,20.966-49.963,48
	c0.583,27.034,22.927,48.5,49.963,48h3.051c5.891,0,10.667,4.776,10.667,10.667c0,5.891-4.776,10.667-10.667,10.667h-3.051
	c-38.816,0.498-70.711-30.518-71.296-69.333c0.447-34.864,26.442-64.103,61.013-68.629C120.747,50.493,177.923-0.813,245.784,0.01
	c52.412-0.323,100.057,30.372,121.429,78.229c49.474-1.013,90.403,38.272,91.416,87.746c0.893,43.62-29.762,81.542-72.6,89.811
	C385.328,255.943,384.613,256.015,383.896,256.01z"/>
<path d="M255.896,405.343c-5.891,0-10.667-4.776-10.667-10.667V185.759l-13.781,13.781c-4.237,4.092-10.99,3.975-15.083-0.262
	c-3.992-4.134-3.992-10.687,0-14.82l32-32c4.172-4.159,10.926-4.148,15.085,0.024c1.993,1.999,3.112,4.706,3.112,7.528v234.667
	C266.563,400.568,261.787,405.343,255.896,405.343z"/>
<path d="M287.896,202.677c-2.831,0.005-5.548-1.115-7.552-3.115l-32-32c-4.092-4.237-3.975-10.99,0.262-15.083
	c4.134-3.992,10.687-3.992,14.82,0l32,32c4.159,4.172,4.149,10.926-0.024,15.085C293.409,201.552,290.711,202.67,287.896,202.677z"
	/>
<g>
</g>
<g>
</g>
<g>
</g>
<g>
</g>
<g>
</g>
<g>
</g>
<g>
</g>
<g>
</g>
<g>
</g>
<g>
</g>
<g>
</g>
<g>
</g>
<g>
</g>
<g>
</g>
<g>
</g>
</svg>
