<svg xmlns="http://www.w3.org/2000/svg" width="13.75" height="15.644" viewBox="0 0 13.75 15.644">
  <g id="user_27_" data-name="user(27)" transform="translate(-31)">
    <g id="Group_11911" data-name="Group 11911" transform="translate(33.75)">
      <g id="Group_11910" data-name="Group 11910">
        <path id="Path_6231" data-name="Path 6231" d="M125.125,0a4.125,4.125,0,1,0,4.125,4.125A4.13,4.13,0,0,0,125.125,0Z" transform="translate(-121)" fill="#e41b23"/>
      </g>
    </g>
    <g id="Group_11913" data-name="Group 11913" transform="translate(31 9.166)">
      <g id="Group_11912" data-name="Group 11912">
        <path id="Path_6232" data-name="Path 6232" d="M43.007,301.778A5.88,5.88,0,0,0,38.792,300H36.958a5.88,5.88,0,0,0-4.216,1.778A6.011,6.011,0,0,0,31,306.019a.458.458,0,0,0,.458.458H44.291a.458.458,0,0,0,.458-.458A6.011,6.011,0,0,0,43.007,301.778Z" transform="translate(-31 -300)" fill="#e41b23"/>
      </g>
    </g>
  </g>
</svg>
